<?xml version="1.0" encoding="utf-8"?>
<!-- Generator: Adobe Illustrator 26.0.2, SVG Export Plug-In . SVG Version: 6.00 Build 0)  -->
<svg version="1.1" id="Ebene_1" xmlns="http://www.w3.org/2000/svg" xmlns:xlink="http://www.w3.org/1999/xlink" x="0px" y="0px"
	 viewBox="0 0 79.5 30.4" style="enable-background:new 0 0 79.5 30.4;" xml:space="preserve">
<g>
	<g>
		<path style="fill:#CFE6E5;" d="M25.6,5.3c0,0,2.5,2.4,5,3.6c2.6,1.1,6.6,2,6.6,4.4c0,2.5,0.1,3.6,0.1,3.6s-0.7-0.9-1.4-0.9
			c-0.7,0-1.4,0.9-2.7,0.9c-1.3-0.1-1.8-0.7-1.8-0.7l1.6-1c0,0-2.6,1-3.8-0.6c0.4,0,2-0.4,2.2-0.8c-0.6,0.1-2.9,0.6-3.9-1.3
			c0.3,0,2.9,0.1,2.9-0.6c-0.5,0-3.7-0.2-4.4-2.8c0.3,0.2,1.7,0.7,2.1,0.6c-0.4-0.4-2.1-1.9-2.4-3.3C25.4,5.7,25.6,5.3,25.6,5.3
			L25.6,5.3z"/>
		<path style="fill:#CFE6E5;" d="M50.6,5.3c0,0-2.5,2.4-5,3.6c-2.6,1.1-6.6,2-6.6,4.4c0,2.5-0.1,3.6-0.1,3.6s0.7-0.9,1.4-0.9
			s1.4,0.9,2.7,0.9c1.3-0.1,1.8-0.7,1.8-0.7l-1.6-1c0,0,2.6,1,3.8-0.6c-0.5,0-2-0.4-2.2-0.8c0.6,0.1,2.9,0.6,3.9-1.3
			c-0.3,0-2.9,0.1-2.9-0.6c0.5,0,3.7-0.2,4.4-2.8c-0.3,0.2-1.7,0.7-2.1,0.6c0.4-0.4,2.1-1.9,2.4-3.3c0.1-0.2,0.1-0.4,0.1-0.6l0,0
			C50.7,5.5,50.6,5.3,50.6,5.3L50.6,5.3z"/>
		<path style="fill:#CFE6E5;" d="M39.2,24c-1.1-5.2-0.8-10.2-0.7-11.9c0.1-1.7,1-1.8,1.2-1.9c0.2-0.2,0-7.2,0-7.2l-0.3,0
			c0,0,0,1.3,0,2.6S39.1,8.5,39,8.5S38.8,8,38.7,7.2c-0.1-0.8-0.1-4.1-0.1-4.1l-0.3,0c0,0,0,2.3,0,3c0,0.5-0.1,1.3-0.2,1.7
			c-0.1-0.4-0.2-1.1-0.2-1.7c0-0.8-0.1-3-0.1-3l-0.3,0c0,0,0,3.3-0.1,4.1c-0.1,0.8-0.1,1.3-0.3,1.3c-0.2,0-0.3-1.6-0.3-2.8
			s-0.1-2.6-0.1-2.6l-0.3,0l0,0h0c0,0-0.2,6.9,0,7.1c0.2,0.2,1.1,0.3,1.2,1.9C37.7,13.9,38,18.8,37,24c-0.5,3.4-1.4,6.2,1.1,6.3
			c0,0,0,0,0,0c0,0,0,0,0,0c0,0,0,0,0,0c0,0,0,0,0,0C40.5,30.3,39.7,27.4,39.2,24z"/>
		<g>
			<path style="fill:#CFE6E5;" d="M38,3c-3,0-6.2-0.5-6.2-1.5S35,0,38,0c3,0,6.2,0.5,6.2,1.5S41,3,38,3z M38,0.2
				c-3.5,0-5.9,0.6-5.9,1.2s2.4,1.2,5.9,1.2c3.5,0,5.9-0.6,5.9-1.2S41.5,0.2,38,0.2z"/>
		</g>
		<g>
			<path style="fill:#CFE6E5;" d="M36.5,1.1c0,0.1,0,1,0,1.4c0.1,0,0.2,0,0.3,0c0-0.2,0-1.1,0-1.3C36.9,0.9,36.5,1,36.5,1.1z"/>
			<path style="fill:#CFE6E5;" d="M37.6,1c0,0.1,0,0.4,0,0.5c0,0.2,0,0.8,0,1c0.1,0,0.2,0,0.3,0c0-0.1,0-0.7,0-1.2
				C37.8,0.9,37.6,0.9,37.6,1z"/>
			<path style="fill:#CFE6E5;" d="M38.6,1.5c0-0.1,0-0.4,0-0.5s-0.2-0.2-0.2,0.3c0,0.5,0,1,0,1.2c0.1,0,0.2,0,0.3,0
				C38.6,2.3,38.6,1.7,38.6,1.5z"/>
			<path style="fill:#CFE6E5;" d="M39.3,1.2c0,0.2,0,1,0,1.3c0.1,0,0.3,0,0.4,0c0-0.3,0-1.3,0-1.3C39.7,1,39.3,0.9,39.3,1.2z"/>
		</g>
	</g>
</g>
<path style="fill:#0C8080;" d="M9.4,22.1H8.5l-1.2,2.4H4.2V13.7L5.9,13v-0.6H0V13l1.6,0.7v10.6L0,25v0.6h9L9.4,22.1L9.4,22.1z
	 M22.2,22.4h-0.8l-1.2,2.2h-4.2v-5.2h3.3l0.7,1.6h0.8v-4.4h-0.8l-0.7,1.8h-3.3v-5.1h4l1,2.3h0.8v-3.1h-10V13l1.6,0.7v10.6L11.9,25
	v0.6H22L22.2,22.4L22.2,22.4z M36.7,21.8h-0.9l-1.1,2.7c-0.1,0.1-1.2,0.1-1.4,0.1c-3.4,0-5.1-2.3-5.1-5.5c0-1.6,0.5-3.2,1.6-4.5
	c1.1-1.1,2.5-1.4,4.1-1.4c0.3,0,0.6,0,0.9,0.1l1,2.7h0.9v-3.2c-1.3-0.3-2.5-0.6-3.8-0.6c-4.3,0-7.2,2.6-7.2,7c0,4.1,2.5,6.5,6.5,6.5
	c1.5,0,2.9-0.3,4.4-0.7L36.7,21.8L36.7,21.8z M52.1,25.6V25l-1.6-0.7L46,17.9l4.1-4.2l1.6-0.7v-0.6h-4.7V13l1.2,0.6l-4.5,5.2
	l4.5,6.7L52.1,25.6L52.1,25.6z M45.3,25.6V25l-1.6-0.7l-0.1-10.6l1.7-0.7v-0.6h-5.8V13l1.6,0.7v10.6L39.5,25v0.6H45.3L45.3,25.6z
	 M64,22.4h-0.8L62,24.7h-4.1v-5.2h3.3l0.7,1.6h0.8v-4.4h-0.8l-0.7,1.8h-3.3v-5.1h4l1,2.3h0.8v-3.1h-10V13l1.6,0.7v10.6L53.7,25v0.6
	h10.1L64,22.4L64,22.4z M79.5,25.6V25l-1.6-0.7L74.3,19c1.8-0.3,2.9-1.6,2.9-3.4c0-0.9-0.3-1.7-1.1-2.3c-0.9-0.8-2-0.8-3.1-0.8h-5.9
	V13l1.6,0.7v10.6L67.2,25v0.6H73V25l-1.6-0.7v-4.9h0.4l3.9,6.2L79.5,25.6L79.5,25.6z M74.6,15.9c0,1.4-0.8,2.7-2.3,2.7h-0.9v-5.2
	h0.9C73.8,13.3,74.6,14.4,74.6,15.9L74.6,15.9z"/>
</svg>
