<?xml version="1.0" encoding="UTF-8" standalone="no"?>
<!-- Generator: Adobe Illustrator 19.0.0, SVG Export Plug-In . SVG Version: 6.00 Build 0)  -->

<svg
   xmlns:dc="http://purl.org/dc/elements/1.1/"
   xmlns:cc="http://creativecommons.org/ns#"
   xmlns:rdf="http://www.w3.org/1999/02/22-rdf-syntax-ns#"
   xmlns:svg="http://www.w3.org/2000/svg"
   xmlns="http://www.w3.org/2000/svg"
   xmlns:sodipodi="http://sodipodi.sourceforge.net/DTD/sodipodi-0.dtd"
   xmlns:inkscape="http://www.inkscape.org/namespaces/inkscape"
   version="1.1"
   id="Ebene_1"
   x="0px"
   y="0px"
   viewBox="0 0 30 30"
   style="enable-background:new 0 0 30 30;"
   xml:space="preserve"
   inkscape:version="0.48.4 r9939"
   width="100%"
   height="100%"
   sodipodi:docname="pinterest.svg"><metadata
     id="metadata10"><rdf:RDF><cc:Work
         rdf:about=""><dc:format>image/svg+xml</dc:format><dc:type
           rdf:resource="http://purl.org/dc/dcmitype/StillImage" /><dc:title></dc:title></cc:Work></rdf:RDF></metadata><defs
     id="defs8" /><sodipodi:namedview
     pagecolor="#ffffff"
     bordercolor="#666666"
     borderopacity="1"
     objecttolerance="10"
     gridtolerance="10"
     guidetolerance="10"
     inkscape:pageopacity="0"
     inkscape:pageshadow="2"
     inkscape:window-width="1131"
     inkscape:window-height="897"
     id="namedview6"
     showgrid="false"
     inkscape:zoom="7.8666667"
     inkscape:cx="15"
     inkscape:cy="15"
     inkscape:window-x="1719"
     inkscape:window-y="0"
     inkscape:window-maximized="0"
     inkscape:current-layer="Ebene_1" /><style
     type="text/css"
     id="style3">
	.st0{fill-rule:evenodd;clip-rule:evenodd;fill:#CE2228;}
</style><path
     id="XMLID_15_"
     class="st0"
     d="M15,0C6.7,0,0,6.7,0,15c0,8.3,6.7,15,15,15c8.3,0,15-6.7,15-15C30,6.7,23.3,0,15,0z M16.2,18.4  c-0.9,0-1.8-0.5-2.1-1.1c0,0-0.5,2-0.6,2.4c-0.4,1.4-1.5,2.7-1.6,2.8c0,0.1-0.2,0-0.2,0c0-0.2-0.3-1.9,0-3.3  c0.2-0.7,1.1-4.7,1.1-4.7s-0.3-0.5-0.3-1.4c0-1.3,0.8-2.3,1.7-2.3c0.8,0,1.2,0.6,1.2,1.3c0,0.8-0.5,2-0.8,3.1  c-0.2,0.9,0.5,1.7,1.4,1.7c1.7,0,2.8-2.1,2.8-4.6c0-1.9-1.3-3.3-3.6-3.3c-2.6,0-4.3,2-4.3,4.2c0,0.8,0.2,1.3,0.5,1.7  c0.2,0.2,0.2,0.3,0.1,0.5c0,0.2-0.1,0.5-0.2,0.7c-0.1,0.2-0.2,0.3-0.5,0.2c-1.2-0.5-1.8-1.8-1.8-3.3c0-2.5,2.1-5.4,6.2-5.4  c3.3,0,5.5,2.4,5.6,5C20.9,15.8,19,18.4,16.2,18.4z" /><path
     style="fill:#ffffff;fill-opacity:1;stroke:none"
     d="m 11.674835,21.566729 c -0.112286,-1.208147 -0.03792,-1.752002 0.634761,-4.642293 0.455951,-1.95907 0.536597,-2.480231 0.430773,-2.783799 -0.07161,-0.20542 -0.1302,-0.681852 -0.1302,-1.058738 0,-1.659714 1.377259,-2.774691 2.333133,-1.888816 0.459687,0.426023 0.447201,1.203696 -0.045,2.80268 -0.44741,1.453482 -0.46542,1.767351 -0.132723,2.312991 0.482754,0.791739 1.779844,0.836061 2.665214,0.09107 0.496098,-0.417439 1.116068,-1.690517 1.294553,-2.6583 0.196308,-1.064425 0.08845,-2.421916 -0.243937,-3.070331 -0.597579,-1.1657282 -1.885926,-1.7696047 -3.563415,-1.6702503 -1.138633,0.067439 -1.920571,0.3748687 -2.665716,1.0480623 -1.342864,1.213197 -1.779055,3.203228 -1.030594,4.701875 0.240151,0.480856 0.255349,0.606238 0.122339,1.009263 -0.171288,0.519007 -0.39773,0.576801 -0.917325,0.234122 C 9.3983159,15.316034 8.876622,13.720322 9.1745217,12.164208 10.013414,7.7821551 16.196195,6.1316142 19.366372,9.4434155 c 1.067862,1.1155685 1.587826,2.9632035 1.268709,4.5082165 -0.253395,1.22682 -0.606128,2.036154 -1.191646,2.734194 -1.481237,1.765895 -3.689929,2.135333 -5.067927,0.847689 l -0.332118,-0.310341 -0.342697,1.367634 c -0.375874,1.500038 -0.895287,2.660221 -1.528819,3.414829 l -0.410774,0.489277 -0.08627,-0.928185 z"
     id="path3006"
     inkscape:connector-curvature="0" /></svg>